<svg clip-rule="evenodd" fill-rule="evenodd" height="200" image-rendering="optimizeQuality" shape-rendering="geometricPrecision" text-rendering="geometricPrecision" width="200" xmlns="http://www.w3.org/2000/svg"><path d="m1.5-.5h194c1 1.66667 2.333 3 4 4v159c-7.499-9.525-13.832-19.858-19-31 5.559-10.495 10.059-21.495 13.5-33 2.83-16.6133 1.83-32.9466-3-49-6.897-13.9025-17.73-23.0692-32.5-27.5-13.217-1.1003-25.884.733-38 5.5-27.5344 5.0483-54.2011 12.8816-80 23.5-3.6943 2.1782-7.3609 4.3448-11 6.5-17.0653 10.5341-26.39862 25.7008-28 45.5-.49031 6.545.67636 12.712 3.5 18.5 3.47836 5.528 7.3117 6.028 11.5 1.5 4.4811-2.09 8.8144-4.257 13-6.5 13.2703-5.258 26.6036-10.425 40-15.5 12.5204-4.1294 25.1871-7.6294 38-10.5-.667.6667-1.333 1.3333-2 2-7.6485 5.6518-14.9819 11.652-22 18-6.4333 3.918-12.7666 8.085-19 12.5-2.9409 2.287-5.6075 4.787-8 7.5.3757 1.883 1.3757 3.383 3 4.5 4.5853 1.225 9.252 1.725 14 1.5-11.635 14.105-15.135 30.105-10.5 48 1.6484 5.29 3.8151 10.29 6.5 15-23 0-46 0-69 0 0-.667-.333333-1-1-1 0-65.667 0-131.3333 0-197 1-.33333 1.66667-1 2-2z" fill="#1161fc" opacity=".999"/><path d="m199.5 162.5v34c-1.406.473-2.073 1.473-2 3-42.667 0-85.333 0-128 0-2.6849-4.71-4.8516-9.71-6.5-15-4.635-17.895-1.135-33.895 10.5-48 5.2293-1.281 9.8959-3.615 14-7-1.0914 2.928-3.0914 5.094-6 6.5.6667.333 1.3333.667 2 1-5.134 8.991-6.634 18.491-4.5 28.5.3333-1.333.6667-2.667 1-4 1.3549 4.88 3.8549 9.047 7.5 12.5 3.3333.667 6.6667.667 10 0 5.141-1.802 9.808-4.468 14-8l37-37c7.786-5.451 15.286-11.285 22.5-17.5 12.429-14.9666 16.429-31.9666 12-51-2.275-4.5541-5.775-5.8874-10.5-4-.667-4.1475-1.334-8.1475-2-12-1.866-11.3643-8.366-18.3643-19.5-21-9.189 2.0265-12.522 7.6932-10 17 1.372 1.4101 2.205 3.0767 2.5 5-2.334 1.6757-3.334 4.009-3 7-1.877-6.4444-4.377-12.7777-7.5-19-2.959-4.5631-7.126-6.5631-12.5-6 12.116-4.767 24.783-6.6003 38-5.5 14.77 4.4308 25.603 13.5975 32.5 27.5 4.83 16.0534 5.83 32.3867 3 49-3.441 11.505-7.941 22.505-13.5 33 5.168 11.142 11.501 21.475 19 31z" fill="#221622"/><path d="m170.5 44.5v3c-1.459.0674-2.792-.2659-4-1 .163-2.3568-.003-4.6902-.5-7-.422-1.9257-1.589-2.9257-3.5-3-6.88-3.501-12.38-1.8343-16.5 5-.494 1.6341-.66 3.3008-.5 5-.667-.3333-1.333-.6667-2-1-.295-1.9233-1.128-3.5899-2.5-5-2.522-9.3068.811-14.9735 10-17 11.134 2.6357 17.634 9.6357 19.5 21z" fill="#f4c367"/><path d="m120.5 27.5c5.374-.5631 9.541 1.4369 12.5 6 3.123 6.2223 5.623 12.5556 7.5 19-.029 5.7102.471 11.3769 1.5 17 2.909 2.8939 6.409 3.7272 10.5 2.5 3.662-1.1632 7.328-2.3299 11-3.5 1.83.0796 3.163.913 4 2.5-3.094 4.0215-5.26 8.5215-6.5 13.5-2.167 2.1667-4.333 4.3333-6.5 6.5-22.655 12.326-44.988 25.159-67 38.5-4.1041 3.385-8.7707 5.719-14 7-4.748.225-9.4147-.275-14-1.5-1.6243-1.117-2.6243-2.617-3-4.5 2.3925-2.713 5.0591-5.213 8-7.5 6.2334-4.415 12.5667-8.582 19-12.5h6c-1.6271 2.13-3.4604 4.13-5.5 6-.4828.948-.6495 1.948-.5 3 9.0633-4.371 17.73-9.537 26-15.5 9.937-5.3038 19.937-10.6372 30-16 3.166-2.0001 5.832-4.5001 8-7.5 2.177-.0861 4.177-.7528 6-2 .333.3333.667.6667 1 1-2.829 2.6586-5.829 5.1586-9 7.5-21.487 10.2359-41.82 22.236-61 36-6.962 3.407-14.2953 5.574-22 6.5 8.1325.551 15.7992-1.282 23-5.5 19.048-13.194 39.048-24.8611 60-35 6.333-3.6667 11.333-8.6667 15-15-5.147 1.666-10.147 3.8326-15 6.5-13.185 1.7947-25.851 5.1281-38 10-12.8129 2.8706-25.4796 6.3706-38 10.5-13.3964 5.075-26.7297 10.242-40 15.5 8.2832-7.467 14.4499-16.467 18.5-27 3.2842-16.4609-2.8825-27.1275-18.5-32 3.6391-2.1552 7.3057-4.3218 11-6.5 25.7989-10.6184 52.4656-18.4517 80-23.5z" fill="#f9a64b"/><path d="m155.5 37.5c-3.93 3.4522-3.43 6.4522 1.5 9 4.461-2.1944 5.294-5.1944 2.5-9 .709-.904 1.709-1.2373 3-1 2.852 2.9246 3.518 6.258 2 10-5.638.7197-11.304 1.053-17 1-1.148-4.939.519-8.439 5-10.5 1.249-.7401 2.249-.5735 3 .5z" fill="#e8e7e7"/><path d="m155.5 37.5h4c2.794 3.8056 1.961 6.8056-2.5 9-4.93-2.5478-5.43-5.5478-1.5-9z" fill="#161114"/><path d="m162.5 36.5c-1.291-.2373-2.291.096-3 1-1.333 0-2.667 0-4 0-.751-1.0735-1.751-1.2401-3-.5-4.481 2.061-6.148 5.561-5 10.5 5.696.053 11.362-.2803 17-1-3.195 1.5296-6.695 2.1963-10.5 2-2.5-.1667-5-.3333-7.5-.5-.556-.3826-.889-.8826-1-1.5-.16-1.6992.006-3.3659.5-5 4.12-6.8343 9.62-8.501 16.5-5z" fill="#4e433c"/><path d="m162.5 36.5c1.911.0743 3.078 1.0743 3.5 3 .497 2.3098.663 4.6432.5 7-.667 0-1.333 0-2 0 1.518-3.742.852-7.0754-2-10z" fill="#261d1a"/><path d="m170.5 44.5c.666 3.8525 1.333 7.8525 2 12 4.725-1.8874 8.225-.5541 10.5 4 4.429 19.0334.429 36.0334-12 51-7.214 6.215-14.714 12.049-22.5 17.5-12.387 12.387-24.721 24.721-37 37-4.192 3.532-8.859 6.198-14 8-3.3333.667-6.6667.667-10 0-3.6451-3.453-6.1451-7.62-7.5-12.5-.3333 1.333-.6667 2.667-1 4-2.134-10.009-.634-19.509 4.5-28.5-.6667-.333-1.3333-.667-2-1 2.9086-1.406 4.9086-3.572 6-6.5 22.012-13.341 44.345-26.174 67-38.5 2.167-2.1667 4.333-4.3333 6.5-6.5 1.24-4.9785 3.406-9.4785 6.5-13.5-.837-1.587-2.17-2.4204-4-2.5-3.672 1.1701-7.338 2.3368-11 3.5-4.091 1.2272-7.591.3939-10.5-2.5-1.029-5.6231-1.529-11.2898-1.5-17-.334-2.991.666-5.3243 3-7 .667.3333 1.333.6667 2 1 .111.6174.444 1.1174 1 1.5 2.5.1667 5 .3333 7.5.5 3.805.1963 7.305-.4704 10.5-2h2c1.208.7341 2.541 1.0674 4 1 0-1 0-2 0-3z" fill="#eeecdf"/><path d="m29.5 57.5c15.6175 4.8725 21.7842 15.5391 18.5 32-4.0501 10.533-10.2168 19.533-18.5 27-4.1856 2.243-8.5189 4.41-13 6.5-4.1883 4.528-8.02164 4.028-11.5-1.5-2.82364-5.788-3.99031-11.955-3.5-18.5 1.60138-19.7992 10.9347-34.9659 28-45.5z" fill="#1e1416"/><path d="m145.5 80.5h2c-2.168 2.9999-4.834 5.4999-8 7.5-10.063 5.3628-20.063 10.6962-30 16-8.27 5.963-16.9367 11.129-26 15.5-.1495-1.052.0172-2.052.5-3 2.0396-1.87 3.8729-3.87 5.5-6 6.7472-5.374 12.081-11.3736 16-18 .667-.6667 1.333-1.3333 2-2 12.149-4.8719 24.815-8.2053 38-10z" fill="#8f3c2e"/><path d="m147.5 80.5c-.667 0-1.333 0-2 0 4.853-2.6674 9.853-4.834 15-6.5-3.667 6.3333-8.667 11.3333-15 15-20.952 10.1389-40.952 21.806-60 35-7.2008 4.218-14.8675 6.051-23 5.5 7.7047-.926 15.038-3.093 22-6.5 19.18-13.764 39.513-25.7641 61-36 3.171-2.3414 6.171-4.8414 9-7.5-.333-.3333-.667-.6667-1-1-1.823 1.2472-3.823 1.9139-6 2z" fill="#de5823"/><path d="m105.5 92.5c-3.919 6.6264-9.2528 12.626-16 18-2 0-4 0-6 0 7.0181-6.348 14.3515-12.3482 22-18z" fill="#cc4121"/></svg>